<svg width="333" height="333" viewBox="0 0 333 333" fill="none" xmlns="http://www.w3.org/2000/svg">
<path d="M73.7 203V141.6H54.6V130H105.4V141.6H86.3V203H73.7ZM123.761 203V130H167.561V140.9H136.061V159.9H164.061V170.7H136.061V192.1H167.561V203H123.761ZM210.322 204C205.655 204 201.555 203.133 198.022 201.4C194.555 199.6 191.855 197.1 189.922 193.9C188.055 190.633 187.122 186.8 187.122 182.4V150.6C187.122 146.133 188.055 142.3 189.922 139.1C191.855 135.9 194.555 133.433 198.022 131.7C201.555 129.9 205.655 129 210.322 129C215.055 129 219.122 129.9 222.522 131.7C225.989 133.433 228.689 135.9 230.622 139.1C232.555 142.3 233.522 146.133 233.522 150.6H220.922C220.922 147.133 219.989 144.5 218.122 142.7C216.322 140.9 213.722 140 210.322 140C206.922 140 204.289 140.9 202.422 142.7C200.555 144.5 199.622 147.1 199.622 150.5V182.4C199.622 185.8 200.555 188.433 202.422 190.3C204.289 192.1 206.922 193 210.322 193C213.722 193 216.322 192.1 218.122 190.3C219.989 188.433 220.922 185.8 220.922 182.4H233.522C233.522 186.733 232.555 190.533 230.622 193.8C228.689 197.067 225.989 199.6 222.522 201.4C219.122 203.133 215.055 204 210.322 204ZM252.583 203V130H265.083V159.3H284.683V130H297.183V203H284.683V170.9H265.083V203H252.583Z" fill="#F48C06"/>
<path d="M309.077 230.336C314.117 232.595 316.398 238.528 313.841 243.423C299.852 270.199 278.801 292.721 252.889 308.494C224.123 326.005 190.721 334.374 157.097 332.496C123.474 330.618 91.2116 318.58 64.5753 297.974C37.9391 277.369 18.1827 249.165 7.91771 217.092C-2.34731 185.019 -2.63774 150.585 7.0848 118.343C16.8073 86.1009 36.0851 57.5682 62.37 36.5163C88.6549 15.4644 120.709 2.88444 154.297 0.439181C184.552 -1.76351 214.768 4.35095 241.704 18.0285C246.628 20.529 248.216 26.6844 245.424 31.4497L237.619 44.7737C234.827 49.539 228.715 51.1013 223.751 48.6813C203.038 38.5846 179.969 34.1061 156.87 35.7878C130.438 37.7122 105.212 47.6123 84.526 64.1797C63.8403 80.7471 48.6692 103.202 41.0177 128.575C33.3663 153.949 33.5949 181.048 41.6732 206.289C49.7516 231.53 65.2993 253.725 86.2615 269.941C107.224 286.157 132.613 295.631 159.074 297.109C185.535 298.587 211.822 292.001 234.46 278.22C254.243 266.178 270.425 249.137 281.426 228.891C284.063 224.038 289.946 221.761 294.986 224.02L309.077 230.336Z" fill="#F48C06"/>
</svg>
